<svg width="162" height="162" viewBox="0 0 162 162" fill="none" xmlns="http://www.w3.org/2000/svg">
<path d="M146.18 0H15.8203C7.083 0 0 7.083 0 15.8203V146.18C0 154.917 7.083 162 15.8203 162H146.18C154.917 162 162 154.917 162 146.18V15.8203C162 7.083 154.917 0 146.18 0Z" fill="url(#paint0_linear_9_6)"/>
<path d="M133.346 21.06H99.1237C94.9298 21.06 91.53 24.4598 91.53 28.6537V84.3412C91.53 88.5352 94.9298 91.935 99.1237 91.935H133.346C137.54 91.935 140.94 88.5352 140.94 84.3412V28.6537C140.94 24.4598 137.54 21.06 133.346 21.06Z" fill="white"/>
<path d="M62.8763 21.06H28.6537C24.4598 21.06 21.06 24.4598 21.06 28.6537V124.841C21.06 129.035 24.4598 132.435 28.6537 132.435H62.8763C67.0702 132.435 70.47 129.035 70.47 124.841V28.6537C70.47 24.4598 67.0702 21.06 62.8763 21.06Z" fill="white"/>
<defs>
<linearGradient id="paint0_linear_9_6" x1="81" y1="0" x2="81" y2="162" gradientUnits="userSpaceOnUse">
<stop stop-color="#2B5276" stop-opacity="0.7"/>
<stop offset="1" stop-color="#2B5276"/>
</linearGradient>
</defs>
</svg>
